<?xml version="1.0" standalone="no"?><!DOCTYPE svg PUBLIC "-//W3C//DTD SVG 1.1//EN" "http://www.w3.org/Graphics/SVG/1.1/DTD/svg11.dtd"><svg t="1611238472967" class="icon" viewBox="0 0 1024 1024" version="1.1" xmlns="http://www.w3.org/2000/svg" p-id="2415" xmlns:xlink="http://www.w3.org/1999/xlink" width="200" height="200"><defs><style type="text/css"></style></defs><path d="M521.82651438 511.07033937a35.19578063 35.19578063 0 0 1-35.85532782-34.41631687V66.59619313C485.97118656 47.52931344 502.04012968 32 521.82651438 32c19.84634343 0 35.97524436 15.58927219 35.97524437 34.59619312v409.87795313a35.25573937 35.25573937 0 0 1-35.91528564 34.59619312zM511.03394031 991.33985469a466.2991275 466.2991275 0 0 1-324.37678781-129.63079782A441.05649844 441.05649844 0 0 1 88.3248175 721.04585001a428.82491531 428.82491531 0 0 1 16.48865343-377.62014938A452.98828781 452.98828781 0 0 1 244.39742031 189.09190156a36.75470813 36.75470813 0 0 1 50.12550657 8.03447063 33.69681281 33.69681281 0 0 1-8.39422313 48.14686875 382.89651938 382.89651938 0 0 0-117.7589672 130.35030281 357.05430187 357.05430187 0 0 0-44.30950967 173.04092624c0 99.771345 40.29227344 193.54681594 113.44193812 264.0582947a391.65049594 391.65049594 0 0 0 273.65169281 109.36474406 391.89032999 391.89032999 0 0 0 273.65169375-109.30478532 364.30930969 364.30930969 0 0 0 113.32202062-264.11825344 356.75450812 356.75450812 0 0 0-44.18959218-173.04092624 382.53676688 382.53676688 0 0 0-117.93884345-130.23038531 33.69681281 33.69681281 0 0 1-8.8139353-47.4873225l0.5995875-0.719505a36.69474938 36.69474938 0 0 1 50.06554875-8.03447064 452.38870031 452.38870031 0 0 1 139.52399063 154.27384032 428.40520406 428.40520406 0 0 1 16.54861218 377.62014937 440.45691094 440.45691094 0 0 1-98.332335 140.72316563 459.28395562 459.28395562 0 0 1-145.81965843 94.85472749A471.99520875 471.99520875 0 0 1 511.03394031 991.33985469z" p-id="2416"></path></svg>